<?xml version="1.0" encoding="UTF-8"?>
<svg xmlns="http://www.w3.org/2000/svg" xmlns:xlink="http://www.w3.org/1999/xlink" width="36px" height="36px" viewBox="0 0 36 36" version="1.1">
<g id="surface1">
<path style=" stroke:none;fill-rule:nonzero;fill:rgb(100%,100%,100%);fill-opacity:1;" d="M 35.398438 17.601562 C 35.398438 7.898438 27.601562 0.101562 17.898438 0.101562 C 8.300781 0.101562 0.398438 7.898438 0.398438 17.601562 C 0.398438 27.300781 8.199219 35.101562 17.898438 35.101562 C 27.601562 35.101562 35.398438 27.199219 35.398438 17.601562 Z M 35.398438 17.601562 "/>
<path style=" stroke:none;fill-rule:nonzero;fill:rgb(6.27451%,61.568627%,28.235294%);fill-opacity:1;" d="M 22.898438 13.300781 C 22.800781 13.199219 22.699219 13.199219 22.601562 13.101562 C 22.300781 12.898438 22 12.699219 21.800781 12.398438 C 21.199219 11.699219 21 11 20.898438 10.5 C 20.800781 10.101562 20.898438 9.800781 20.898438 9.800781 L 18 9.800781 L 18 20.601562 C 18 20.699219 18 20.898438 18 21 C 18 21 18 21 18 21.101562 C 17.898438 21.898438 17.5 22.601562 16.800781 23 C 16.398438 23.199219 16 23.300781 15.601562 23.300781 C 14.300781 23.300781 13.199219 22.199219 13.199219 20.898438 C 13.199219 19.601562 14.300781 18.5 15.601562 18.5 C 15.800781 18.5 16.101562 18.5 16.300781 18.601562 L 16.300781 15.699219 C 14.898438 15.5 13.398438 15.898438 12.300781 16.898438 C 11.800781 17.300781 11.398438 17.800781 11.101562 18.398438 C 11 18.601562 10.5 19.398438 10.5 20.800781 C 10.5 21.601562 10.699219 22.300781 10.800781 22.699219 C 10.898438 22.898438 11.101562 23.5 11.601562 24.101562 C 11.898438 24.5 12.398438 24.898438 12.800781 25.199219 C 14.199219 26.101562 15.699219 26.101562 15.699219 26.101562 C 16 26.101562 16.800781 26.101562 17.800781 25.601562 C 18.898438 25.101562 19.5 24.300781 19.5 24.300781 C 19.898438 23.800781 20.199219 23.300781 20.398438 22.699219 C 20.699219 22 20.699219 21.199219 20.699219 20.898438 L 20.699219 15.199219 C 20.699219 15.199219 21.199219 15.5 21.199219 15.5 C 21.199219 15.5 21.898438 15.898438 22.898438 16.199219 C 23.601562 16.398438 24.601562 16.398438 24.601562 16.398438 L 24.601562 13.601562 C 24.300781 13.800781 23.601562 13.699219 22.898438 13.300781 Z M 22.898438 13.300781 "/>
</g>
</svg>
