<svg width="36" height="36" viewBox="0 0 36 36" fill="none" xmlns="http://www.w3.org/2000/svg">
<path d="M35.4336 17.5669C35.4336 7.90191 27.5986 0.0668945 17.9336 0.0668945C8.26861 0.0668945 0.433594 7.90191 0.433594 17.5669C0.433594 27.2319 8.26861 35.0669 17.9336 35.0669C27.5986 35.0669 35.4336 27.2319 35.4336 17.5669Z" fill="white"/>
<path d="M20.9424 18.9429L20.9364 18.9899C19.5624 18.3049 19.4184 18.2139 19.2364 18.4799C19.1134 18.6639 18.7544 19.0799 18.6464 19.2059C18.5384 19.3319 18.4284 19.3369 18.2464 19.2529C17.696 19.0335 17.1884 18.7194 16.7464 18.3249C16.3388 17.9468 15.9891 17.5108 15.7084 17.0309C15.5254 16.7149 15.9084 16.6699 16.2574 16.0099C16.2821 15.9583 16.2936 15.9014 16.2908 15.8443C16.288 15.7873 16.271 15.7318 16.2414 15.6829C16.1944 15.5889 15.8214 14.6709 15.6654 14.3039C15.5094 13.9369 15.3654 13.9849 15.2454 13.9849C15.0962 13.9472 14.94 13.9471 14.7908 13.9846C14.6416 14.0221 14.504 14.0961 14.3904 14.1999C13.3814 15.3089 13.6364 16.4519 14.4994 17.6689C15.4699 19.2268 16.9857 20.3676 18.7514 20.8689C19.132 20.9842 19.5341 21.0102 19.9264 20.9449C20.1866 20.8914 20.4328 20.7847 20.6497 20.6313C20.8665 20.478 21.0493 20.2814 21.1864 20.0539C21.311 19.7745 21.35 19.4644 21.2984 19.1629C21.2524 19.0789 21.1294 19.0319 20.9424 18.9469V18.9429Z" fill="#109D48"/>
<path d="M22.825 12.156C21.7756 11.1226 20.4451 10.4211 18.9996 10.1389C17.554 9.85676 16.0574 10.0065 14.6964 10.5693C13.3354 11.1322 12.1702 12.0834 11.3462 13.3041C10.5223 14.5249 10.076 15.9612 10.063 17.434C10.0628 18.7392 10.4078 20.0212 11.063 21.15L10 25.001L13.959 23.969C15.0949 24.5837 16.3706 24.8937 17.662 24.8691C18.9533 24.8444 20.2162 24.4859 21.3279 23.8283C22.4395 23.1707 23.362 22.2366 24.0055 21.1167C24.649 19.9969 24.9916 18.7295 25 17.438C25.0025 16.4607 24.8106 15.4926 24.4355 14.59C24.0604 13.6875 23.5095 12.8686 22.815 12.181L22.825 12.156ZM23.751 17.417C23.7428 18.5101 23.4469 19.5817 22.893 20.5241C22.339 21.4664 21.5466 22.2462 20.5955 22.785C19.6445 23.3239 18.5682 23.6026 17.4752 23.5933C16.3821 23.584 15.3108 23.2869 14.369 22.732L14.144 22.601L11.8 23.207L12.428 20.929L12.279 20.695C11.4807 19.4023 11.1848 17.8614 11.4476 16.365C11.7104 14.8685 12.5135 13.5206 13.7045 12.5772C14.8955 11.6338 16.3914 11.1606 17.9083 11.2474C19.4252 11.3342 20.8574 11.9749 21.933 13.048C22.511 13.619 22.9695 14.2995 23.2816 15.0496C23.5937 15.7997 23.7533 16.6045 23.751 17.417V17.417Z" fill="#109D48"/>
</svg>
