  <!-- YOUTUBE -->
  <svg
    xmlns="http://www.w3.org/2000/svg"
    height="35"
    width="35"
    viewBox="0 0 35 35"
  >
    <rect
      id="Rectangle_2370"
      data-name="Rectangle 2370"
      width="35"
      height="35"
      rx="17.5"
      fill="#ffffff"
    />
    <path
      id="youtube"
      d="M16.65-4.22a2.13,2.13,0,0,0-1.5-1.5A49.76,49.76,0,0,0,8.5-6.082a51.7,51.7,0,0,0-6.651.35A2.173,2.173,0,0,0,.35-4.22,22.441,22.441,0,0,0,0-.131,22.359,22.359,0,0,0,.35,3.958a2.13,2.13,0,0,0,1.5,1.5A49.85,49.85,0,0,0,8.5,5.821a51.7,51.7,0,0,0,6.651-.35,2.13,2.13,0,0,0,1.5-1.5A22.448,22.448,0,0,0,17-.117,21.3,21.3,0,0,0,16.65-4.22ZM6.806,2.418v-5.1L11.231-.131Zm0,0"
      transform="translate(9 17.631)"
      fill="#109d48"
    />
  </svg>