<svg width="18" height="15" viewBox="0 0 18 15" fill="none" xmlns="http://www.w3.org/2000/svg">
<path d="M9.44284 3.91941C9.73798 3.91941 9.97724 3.68015 9.97724 3.38501C9.97724 3.08987 9.73798 2.85062 9.44284 2.85062C9.1477 2.85062 8.90845 3.08987 8.90845 3.38501C8.90845 3.68015 9.1477 3.91941 9.44284 3.91941Z" fill="white"/>
<path d="M11.5808 3.91941C11.8759 3.91941 12.1152 3.68015 12.1152 3.38501C12.1152 3.08987 11.8759 2.85062 11.5808 2.85062C11.2856 2.85062 11.0464 3.08987 11.0464 3.38501C11.0464 3.68015 11.2856 3.91941 11.5808 3.91941Z" fill="white"/>
<path d="M13.7866 3.91941C14.0817 3.91941 14.321 3.68015 14.321 3.38501C14.321 3.08987 14.0817 2.85062 13.7866 2.85062C13.4915 2.85062 13.2522 3.08987 13.2522 3.38501C13.2522 3.68015 13.4915 3.91941 13.7866 3.91941Z" fill="white"/>
<path d="M11.2406 15C11.6376 14.9986 12.0179 14.8396 12.2978 14.558C12.5777 14.2764 12.7343 13.8952 12.7333 13.4981V11.4981C12.7332 11.393 12.7 11.2907 12.6385 11.2056C12.577 11.1205 12.4902 11.0569 12.3905 11.0238L9.39742 10.024C9.32515 9.99987 9.24832 9.99259 9.17281 10.0027C9.09729 10.0128 9.02507 10.04 8.96168 10.0823L7.68873 10.9309C6.1547 10.1162 4.89468 8.86755 4.06605 7.34097L4.9143 6.06878C4.95656 6.00539 4.98378 5.93318 4.99388 5.85766C5.00398 5.78214 4.9967 5.70531 4.97258 5.63304L3.97425 2.64264C3.94121 2.54294 3.87763 2.45618 3.79251 2.39465C3.70739 2.33312 3.60507 2.29994 3.50004 2.29984H1.49996C1.10324 2.29933 0.722525 2.4562 0.441326 2.73605C0.160127 3.01589 0.00141184 3.39585 0 3.79256C0 6.55519 1.25695 9.39171 3.44633 11.5716C5.63571 13.7514 8.47414 14.9996 11.2406 14.9996V15ZM1.49996 3.29968H3.14009L3.94835 5.71874L3.08524 7.01531C3.03975 7.08286 3.01145 7.16052 3.00282 7.24151C2.99419 7.3225 3.00549 7.40437 3.03573 7.48C3.48114 8.47209 4.11783 9.36661 4.90935 10.1124C5.66423 10.8938 6.56229 11.5229 7.55466 11.9654C7.62999 11.9955 7.71152 12.0069 7.79222 11.9984C7.87291 11.99 7.95034 11.9621 8.01783 11.917L9.31287 11.0528L11.7315 11.8603V13.4981C11.7327 13.5635 11.7208 13.6285 11.6965 13.6892C11.6723 13.7499 11.6361 13.8052 11.5902 13.8518C11.5443 13.8984 11.4896 13.9353 11.4292 13.9605C11.3688 13.9856 11.3041 13.9985 11.2387 13.9982C5.97471 13.9982 0.998324 9.03786 0.998324 3.79028C0.998411 3.72494 1.01153 3.66028 1.03691 3.60007C1.06228 3.53987 1.09942 3.48533 1.14613 3.43965C1.19284 3.39396 1.24819 3.35805 1.30895 3.33402C1.3697 3.30999 1.43464 3.29832 1.49996 3.29968Z" fill="white"/>
<path d="M9.34229 8.96206C9.43369 8.99991 9.53427 9.00979 9.63129 8.99047C9.72831 8.97115 9.81742 8.92348 9.88735 8.85351L11.7408 7.00008H13.5336C13.9933 7.00008 14.4484 6.90954 14.8731 6.73365C15.2977 6.55776 15.6835 6.29995 16.0085 5.97494C16.3336 5.64993 16.5914 5.26409 16.7673 4.83944C16.9432 4.4148 17.0337 3.95967 17.0337 3.50004C17.0337 3.04041 16.9432 2.58528 16.7673 2.16063C16.5914 1.73599 16.3336 1.35015 16.0085 1.02514C15.6835 0.700129 15.2977 0.442318 14.8731 0.266424C14.4484 0.0905311 13.9933 7.42368e-08 13.5336 8.39228e-08H9.53426C8.64925 -0.000193604 7.79704 0.334882 7.14916 0.937774C6.50127 1.54067 6.10583 2.36661 6.04244 3.24934C5.97905 4.13207 6.25241 5.00604 6.8075 5.69532C7.36259 6.3846 8.1582 6.83801 9.03415 6.96427V8.50004C9.0341 8.59888 9.06335 8.69552 9.11819 8.77775C9.17304 8.85999 9.25101 8.92412 9.34229 8.96206ZM7.03369 3.50004C7.03439 2.83716 7.29803 2.20164 7.76675 1.73292C8.23548 1.26419 8.871 1.00055 9.53388 0.999848H13.5333C13.8642 0.995763 14.1926 1.05741 14.4995 1.18122C14.8064 1.30502 15.0856 1.48852 15.3211 1.72107C15.5565 1.95362 15.7435 2.2306 15.871 2.53594C15.9986 2.84129 16.0643 3.16892 16.0643 3.49985C16.0643 3.83077 15.9986 4.15841 15.871 4.46375C15.7435 4.7691 15.5565 5.04607 15.3211 5.27863C15.0856 5.51118 14.8064 5.69468 14.4995 5.81848C14.1926 5.94228 13.8642 6.00393 13.5333 5.99985H11.5336C11.4679 5.99982 11.4029 6.01272 11.3423 6.03782C11.2816 6.06291 11.2265 6.09971 11.1801 6.14611L10.0336 7.2926V6.49996C10.0336 6.36732 9.98092 6.24012 9.88713 6.14633C9.79334 6.05254 9.66613 5.99985 9.53349 5.99985C8.87068 5.99914 8.23522 5.73556 7.76651 5.26691C7.2978 4.79827 7.03411 4.16285 7.03331 3.50004H7.03369Z" fill="white"/>
</svg>
