  <!-- INSTAGRAM -->
  <svg
    xmlns="http://www.w3.org/2000/svg"
    height="35"
    width="35"
    viewBox="0 0 35 35"
  >
    <rect
      id="Rectangle_2370"
      data-name="Rectangle 2370"
      width="35"
      height="35"
      rx="17.5"
      fill="#ffffff"
    />
    <g id="instagram" transform="translate(10 9.999)">
      <path
        id="Path_1564"
        data-name="Path 1564"
        d="M9.695,5.838a3.849,3.849,0,1,0,3.849,3.849A3.848,3.848,0,0,0,9.695,5.838Zm0,6.347a2.5,2.5,0,1,1,2.5-2.5A2.5,2.5,0,0,1,9.695,12.185Z"
        transform="translate(-2.192 -2.189)"
        fill="#109d48"
      />
      <path
        id="Path_1565"
        data-name="Path 1565"
        d="M10.592.048c-1.38-.064-4.8-.061-6.179,0A4.482,4.482,0,0,0,1.266,1.261C-.177,2.7.007,4.647.007,7.5c0,2.917-.162,4.816,1.258,6.237,1.448,1.447,3.42,1.258,6.237,1.258,2.89,0,3.887,0,4.909-.394a4.1,4.1,0,0,0,2.541-4.012c.065-1.381.061-4.8,0-6.179-.124-2.633-1.537-4.23-4.36-4.36ZM12.777,12.78c-.946.946-2.257.861-5.292.861-3.125,0-4.378.046-5.292-.871-1.053-1.048-.862-2.731-.862-5.283,0-3.453-.354-5.94,3.111-6.117.8-.028,1.031-.037,3.035-.037l.028.019c3.331,0,5.944-.349,6.1,3.116.036.791.044,1.028.044,3.029,0,3.089.058,4.349-.871,5.283Z"
        transform="translate(0 0)"
        fill="#109d48"
      />
      <circle
        id="Ellipse_56"
        data-name="Ellipse 56"
        cx="0.899"
        cy="0.899"
        r="0.899"
        transform="translate(10.604 2.598)"
        fill="#109d48"
      />
    </g>
  </svg>