<svg width="11" height="15" viewBox="0 0 11 15" fill="none" xmlns="http://www.w3.org/2000/svg">
<path d="M5.70683 0C4.76778 0.000136836 3.84579 0.250995 3.03612 0.726658C2.22645 1.20232 1.55847 1.88554 1.10118 2.70572C0.643895 3.52591 0.413884 4.45331 0.434917 5.39213C0.45595 6.33094 0.727266 7.24712 1.22083 8.046L5.40683 14.792C5.44615 14.8556 5.50105 14.908 5.56633 14.9444C5.6316 14.9808 5.70509 14.9999 5.77983 15C5.8553 14.9995 5.92938 14.9795 5.99489 14.942C6.0604 14.9046 6.11514 14.8508 6.15383 14.786L10.2338 7.975C10.7107 7.17459 10.9671 6.26215 10.9769 5.3305C10.9867 4.39884 10.7496 3.48121 10.2896 2.67095C9.82969 1.86068 9.16334 1.18669 8.35837 0.717544C7.5534 0.248392 6.63854 0.000816684 5.70683 0V0ZM9.48182 7.524L5.77382 13.716L1.96782 7.583C1.55619 6.9191 1.32872 6.15759 1.30879 5.37669C1.28885 4.59579 1.47717 3.82366 1.85439 3.13963C2.23161 2.45559 2.78413 1.88431 3.4552 1.48447C4.12626 1.08464 4.89168 0.870663 5.67281 0.864531C6.45394 0.858398 7.22262 1.06033 7.89988 1.44958C8.57715 1.83883 9.13857 2.40136 9.52649 3.07939C9.9144 3.75742 10.1148 4.5265 10.1071 5.30762C10.0995 6.08873 9.88399 6.85372 9.48283 7.524H9.48182Z" fill="white"/>
<path d="M5.70779 2.63699C5.18624 2.63699 4.67642 2.79165 4.24276 3.08141C3.80911 3.37116 3.47112 3.78301 3.27153 4.26485C3.07194 4.7467 3.01972 5.27692 3.12147 5.78844C3.22322 6.29997 3.47436 6.76984 3.84315 7.13863C4.21194 7.50742 4.68181 7.75857 5.19334 7.86032C5.70487 7.96207 6.23508 7.90985 6.71693 7.71027C7.19878 7.51068 7.61063 7.17268 7.90039 6.73903C8.19015 6.30538 8.3448 5.79554 8.3448 5.27399C8.34401 4.57486 8.06592 3.90459 7.57156 3.41023C7.0772 2.91587 6.40692 2.63779 5.70779 2.63699ZM5.70779 7.03699C5.35878 7.03759 5.01744 6.93463 4.72696 6.74117C4.43647 6.5477 4.20991 6.2724 4.07594 5.95013C3.94197 5.62785 3.90661 5.27307 3.97433 4.93069C4.04206 4.58831 4.20982 4.27372 4.4564 4.02672C4.70298 3.77972 5.01729 3.61142 5.35956 3.54311C5.70182 3.47481 6.05666 3.50956 6.37916 3.64298C6.70167 3.77641 6.97734 4.0025 7.17131 4.29266C7.36527 4.58281 7.46879 4.92398 7.46879 5.27299C7.46853 5.74024 7.28302 6.18831 6.95291 6.51898C6.6228 6.84965 6.17503 7.03594 5.70779 7.03699Z" fill="white"/>
</svg>
