<?xml version="1.0" encoding="utf-8"?>
<!-- Generator: Adobe Illustrator 26.2.1, SVG Export Plug-In . SVG Version: 6.00 Build 0)  -->
<svg version="1.1" id="Capa_1" xmlns="http://www.w3.org/2000/svg" xmlns:xlink="http://www.w3.org/1999/xlink" x="0px" y="0px"
	 viewBox="0 0 125.6 116.9" style="enable-background:new 0 0 125.6 116.9;" xml:space="preserve">
<style type="text/css">
	.st0{fill:#FFFFFF;}
	.st1{fill:#00953B;}
	.st2{fill:#FFD600;}
</style>
<rect class="st0" width="125.6" height="116.9"/>
<polygon class="st1" points="67.8,32.4 91.6,32.4 91.6,56.1 67.8,56.1 67.8,79.8 44,79.8 44,56.1 20.2,56.1 20.2,32.4 44,32.4 
	44,8.6 67.8,8.6 "/>
<polygon class="st1" points="88.4,108.4 8.6,108.4 8.6,88.6 108.2,88.6 "/>
<path class="st0" d="M27.3,103.5h2.8v-4.2c0-0.3,0-0.6,0.1-0.8c0.3-0.7,0.9-1.2,1.7-1.2c0.2,0,0.4,0,0.6,0v-2.2
	c-0.2,0-0.4-0.1-0.6-0.1c-0.9,0.1-1.6,0.6-2,1.3h-0.1l-0.1-1.2h-2.5c0,0.8,0.1,1.7,0.1,2.5L27.3,103.5z"/>
<path class="st0" d="M61.5,98.6c0-0.8,0.4-1.9,1.3-1.9s1.2,0.8,1.2,1.9H61.5z M66.4,100.1c0.1-0.4,0.1-0.8,0.1-1.2
	c0-2.5-1.3-3.9-3.5-3.9c-2.3-0.1-4.1,1.7-4.2,4c0,0.1,0,0.3,0,0.4c0,2.6,1.6,4.1,4.4,4.1c1,0,2-0.3,2.8-0.7l0.1-1.7
	c-0.7,0.5-1.6,0.7-2.5,0.7c-1.2,0-2.2-0.5-2.2-1.8H66.4z"/>
<path class="st0" d="M78.1,100.6c0,0.2,0,0.4-0.1,0.5c-0.1,0.4-0.5,0.7-1,0.7c-0.8,0-1.3-0.8-1.3-2.4c0-1.3,0.4-2.5,1.3-2.5
	c0.6,0,1,0.4,1,1c0,0.2,0,0.3,0,0.5L78.1,100.6z M78.1,91.8v4.1l0,0c-0.4-0.6-1.1-0.9-1.8-0.8c-1.7,0-3.3,1.4-3.3,4.3
	c0,2.3,1,4.2,3.2,4.2c0.8,0,1.6-0.4,2.2-1.1h0.1l0.2,0.9H81c0-0.8-0.1-1.7-0.1-2.4v-9.2H78.1z"/>
<path class="st0" d="M33.1,95.2h2.7v5.7c0,0.6,0.4,1,1,1s1-0.4,1-1v-4.5v-1.1h2.7v5.3c0,2.1-1.7,3.2-3.7,3.2s-3.7-1.2-3.7-3.2
	L33.1,95.2 M37.7,100.3L37.7,100.3z M35.7,100.2L35.7,100.2z"/>
<path class="st0" d="M84.5,98.6c0-0.8,0.4-1.9,1.3-1.9s1.2,0.8,1.2,1.9H84.5z M89.4,100.1c0.1-0.4,0.1-0.8,0.1-1.1
	c0-2.5-1.3-3.9-3.5-3.9c-2.3-0.1-4.1,1.7-4.2,4c0,0.1,0,0.3,0,0.4c0,2.6,1.6,4.1,4.4,4.1c1,0,2-0.3,2.8-0.8l0.1-1.7
	c-0.7,0.4-1.6,0.7-2.5,0.7c-1.2,0-2.2-0.5-2.2-1.8L89.4,100.1z"/>
<polygon class="st0" points="41.3,95.2 48.1,95.2 44.4,101.6 47.7,101.6 47.7,103.4 40.7,103.4 44.1,97 41.3,97 "/>
<polygon class="st0" points="56.1,103.5 59.4,92.1 56.3,92.1 54.6,100 52.9,92.1 49.8,92.1 53,103.5 "/>
<path class="st0" d="M67.5,103.5h2.8v-4.2c0-0.3,0-0.6,0.1-0.8c0.3-0.7,0.9-1.2,1.7-1.2c0.2,0,0.4,0,0.6,0v-2.2
	c-0.2,0-0.4-0.1-0.6-0.1c-0.9,0.1-1.6,0.6-2,1.3h-0.1l-0.2-1.2h-2.4c0,0.8,0.1,1.7,0.1,2.5L67.5,103.5z"/>
<path class="st0" d="M26.3,103.5c-0.5,0.1-1,0.2-1.5,0.2c-3.7,0-5.5-2.5-5.5-5.9c0-4.5,3-6.2,5.8-6.2c0.4,0,0.8,0,1.2,0.1l-0.1,2.6
	c-0.4-0.2-0.7-0.3-1.1-0.3c-1.4,0-2.7,1-2.7,3.7s1.2,3.4,2.7,3.5c0.4,0,0.8-0.1,1.1-0.3L26.3,103.5z"/>
<polygon class="st2" points="97.8,108.4 88.4,108.4 108.2,88.6 117.7,88.6 "/>
<path class="st0" d="M91,97.1c0-0.2,0.1-0.4,0.2-0.6c0.2-0.4,0.6-0.6,1.1-0.6c0.2,0,0.4,0.1,0.6,0.2c0.2,0.1,0.3,0.3,0.4,0.4
	c0.1,0.2,0.2,0.4,0.2,0.6c0,0.2-0.1,0.4-0.2,0.6c-0.3,0.6-1.1,0.8-1.7,0.5c0,0,0,0,0,0c-0.2-0.1-0.3-0.3-0.4-0.4
	C91,97.6,91,97.4,91,97.1 M91.2,97.1c0,0.2,0,0.4,0.1,0.5c0.1,0.2,0.2,0.3,0.4,0.4c0.2,0.1,0.3,0.1,0.5,0.1c0.2,0,0.4,0,0.5-0.1
	c0.3-0.2,0.5-0.5,0.5-0.9c0-0.2,0-0.4-0.1-0.5c-0.1-0.2-0.2-0.3-0.4-0.4c-0.3-0.2-0.7-0.2-1.1,0c-0.2,0.1-0.3,0.2-0.4,0.4
	C91.2,96.8,91.2,97,91.2,97.1 M92.7,96.8c0,0.1,0,0.2-0.1,0.2c0,0.1-0.1,0.1-0.2,0.2l0.4,0.7h-0.3l-0.3-0.6H92v0.6h-0.2v-1.5h0.4
	c0.1,0,0.3,0,0.4,0.1C92.7,96.6,92.7,96.7,92.7,96.8 M92,97.1h0.2c0.1,0,0.2,0,0.2-0.1c0.1,0,0.1-0.1,0.1-0.2c0-0.1,0-0.1-0.1-0.2
	c-0.1,0-0.1-0.1-0.2-0.1H92V97.1z"/>
</svg>
